<svg xmlns="http://www.w3.org/2000/svg" width="1280" height="720" viewBox="0 0 1280 720">
  <defs>
    <linearGradient id="bg" x1="0" y1="0" x2="1" y2="1">
      <stop offset="0" stop-color="#eef7ff"/>
      <stop offset="0.52" stop-color="#f8fbff"/>
      <stop offset="1" stop-color="#eaf2ff"/>
    </linearGradient>
    <linearGradient id="blue" x1="0" y1="0" x2="1" y2="1">
      <stop offset="0" stop-color="#2563eb"/>
      <stop offset="1" stop-color="#06b6d4"/>
    </linearGradient>
    <filter id="shadow" x="-20%" y="-20%" width="140%" height="140%">
      <feDropShadow dx="0" dy="18" stdDeviation="22" flood-color="#1e3a8a" flood-opacity="0.18"/>
    </filter>
    <style>
      .font { font-family: 'Noto Sans CJK SC', 'Microsoft YaHei', 'PingFang SC', 'WenQuanYi Micro Hei', sans-serif; }
      .mono { font-family: 'JetBrains Mono', 'SFMono-Regular', 'Consolas', monospace; }
    </style>
  </defs>

  <rect width="1280" height="720" fill="url(#bg)"/>
  <circle cx="1070" cy="100" r="220" fill="#dbeafe" opacity="0.7"/>
  <circle cx="180" cy="650" r="260" fill="#ccfbf1" opacity="0.45"/>

  <rect x="82" y="74" width="1116" height="572" rx="38" fill="#ffffff" opacity="0.9" filter="url(#shadow)"/>
  <rect x="82" y="74" width="1116" height="572" rx="38" fill="none" stroke="#dbeafe" stroke-width="2"/>

  <text x="132" y="146" class="font" font-size="34" font-weight="800" fill="#2563eb">FreshBench-GaokaoMath-2026</text>
  <text x="132" y="232" class="font" font-size="60" font-weight="900" fill="#0f172a">2026 高考数学</text>
  <text x="132" y="310" class="font" font-size="60" font-weight="900" fill="#0f172a">开源评测基准</text>
  <rect x="132" y="340" width="520" height="10" rx="5" fill="url(#blue)"/>

  <text x="132" y="408" class="font" font-size="28" font-weight="700" fill="#334155">把刚发布的新题，整理成可复现的 LLM / Agent Benchmark</text>

  <g transform="translate(132 456)">
    <rect x="0" y="0" width="156" height="56" rx="18" fill="#eff6ff" stroke="#bfdbfe"/>
    <text x="78" y="36" text-anchor="middle" class="font" font-size="24" font-weight="700" fill="#1d4ed8">19 道题</text>
    <rect x="178" y="0" width="178" height="56" rx="18" fill="#ecfeff" stroke="#a5f3fc"/>
    <text x="267" y="36" text-anchor="middle" class="font" font-size="24" font-weight="700" fill="#0e7490">JSONL</text>
    <rect x="378" y="0" width="190" height="56" rx="18" fill="#f0fdf4" stroke="#bbf7d0"/>
    <text x="473" y="36" text-anchor="middle" class="font" font-size="24" font-weight="700" fill="#15803d">Schema 校验</text>
  </g>

  <g transform="translate(735 142)">
    <rect x="0" y="0" width="382" height="430" rx="30" fill="#0f172a"/>
    <rect x="0" y="0" width="382" height="58" rx="30" fill="#1e293b"/>
    <circle cx="36" cy="30" r="8" fill="#f87171"/>
    <circle cx="64" cy="30" r="8" fill="#fbbf24"/>
    <circle cx="92" cy="30" r="8" fill="#34d399"/>
    <text x="124" y="38" class="mono" font-size="18" font-weight="700" fill="#cbd5e1">freshbench.jsonl</text>

    <text x="32" y="104" class="mono" font-size="22" fill="#93c5fd">{</text>
    <text x="58" y="146" class="mono" font-size="22" fill="#e2e8f0">"id": "fb-gm2026-001",</text>
    <text x="58" y="188" class="mono" font-size="22" fill="#e2e8f0">"type": "single_choice",</text>
    <text x="58" y="230" class="mono" font-size="22" fill="#e2e8f0">"answer": "B",</text>
    <text x="58" y="272" class="mono" font-size="22" fill="#e2e8f0">"status": "needs_verify"</text>
    <text x="32" y="314" class="mono" font-size="22" fill="#93c5fd">}</text>

    <rect x="32" y="346" width="318" height="48" rx="14" fill="#1d4ed8"/>
    <text x="191" y="377" text-anchor="middle" class="font" font-size="21" font-weight="800" fill="#ffffff">时间戳 · 可核验 · 可复现</text>
  </g>

  <g transform="translate(132 564)">
    <text x="0" y="0" class="font" font-size="22" font-weight="700" fill="#475569">GitHub 开源：</text>
    <text x="128" y="0" class="mono" font-size="22" font-weight="700" fill="#2563eb">github.com/ranxi2001/freshbench</text>
  </g>
</svg>
