<svg xmlns="http://www.w3.org/2000/svg" width="1600" height="900" viewBox="0 0 1600 900">
  <defs>
    <linearGradient id="bg" x1="0" y1="0" x2="1" y2="1">
      <stop offset="0" stop-color="#07111f"/>
      <stop offset="0.55" stop-color="#102a43"/>
      <stop offset="1" stop-color="#0f172a"/>
    </linearGradient>
    <radialGradient id="glow" cx="70%" cy="35%" r="45%">
      <stop offset="0" stop-color="#38bdf8" stop-opacity="0.35"/>
      <stop offset="1" stop-color="#38bdf8" stop-opacity="0"/>
    </radialGradient>
  </defs>
  <rect width="1600" height="900" fill="url(#bg)"/>
  <rect width="1600" height="900" fill="url(#glow)"/>
  <g opacity="0.22" stroke="#93c5fd" stroke-width="2" fill="none">
    <path d="M100 680 C 260 520, 390 760, 560 560 S 860 430, 1040 570 S 1320 650, 1500 440"/>
    <path d="M100 730 C 260 600, 400 770, 600 650 S 900 500, 1120 610 S 1360 700, 1500 520"/>
    <line x1="180" y1="150" x2="180" y2="760"/>
    <line x1="420" y1="150" x2="420" y2="760"/>
    <line x1="660" y1="150" x2="660" y2="760"/>
    <line x1="900" y1="150" x2="900" y2="760"/>
    <line x1="1140" y1="150" x2="1140" y2="760"/>
    <line x1="1380" y1="150" x2="1380" y2="760"/>
  </g>
  <g transform="translate(1080 170)">
    <rect x="0" y="0" width="310" height="390" rx="28" fill="#0b1220" opacity="0.78" stroke="#38bdf8" stroke-opacity="0.6"/>
    <text x="34" y="72" fill="#c7d2fe" font-size="32" font-family="Arial, 'Noto Sans CJK SC', sans-serif">Risk Stack</text>
    <g fill="#e2e8f0" font-size="24" font-family="Arial, 'Noto Sans CJK SC', sans-serif">
      <text x="34" y="132">Volatility</text>
      <text x="34" y="184">Liquidity</text>
      <text x="34" y="236">Capacity</text>
      <text x="34" y="288">Execution</text>
      <text x="34" y="340">Counterparty</text>
    </g>
    <g fill="#38bdf8">
      <circle cx="250" cy="124" r="6"/><circle cx="250" cy="176" r="6"/><circle cx="250" cy="228" r="6"/><circle cx="250" cy="280" r="6"/><circle cx="250" cy="332" r="6"/>
    </g>
  </g>
  <text x="120" y="250" fill="#e5e7eb" font-size="72" font-weight="700" font-family="Arial, 'Noto Sans CJK SC', sans-serif">国外 Quant 圈</text>
  <text x="120" y="350" fill="#ffffff" font-size="92" font-weight="800" font-family="Arial, 'Noto Sans CJK SC', sans-serif">不只讲因子了</text>
  <text x="124" y="430" fill="#93c5fd" font-size="34" font-family="Arial, 'Noto Sans CJK SC', sans-serif">从 Man AHL 看流动性、容量与真实风控</text>
  <g transform="translate(120 520)" font-family="Arial, 'Noto Sans CJK SC', sans-serif">
    <rect x="0" y="0" width="170" height="58" rx="29" fill="#1e40af" opacity="0.85"/>
    <text x="34" y="38" fill="#dbeafe" font-size="25">VaR</text>
    <rect x="195" y="0" width="210" height="58" rx="29" fill="#0f766e" opacity="0.85"/>
    <text x="228" y="38" fill="#ccfbf1" font-size="25">Liquidity</text>
    <rect x="430" y="0" width="190" height="58" rx="29" fill="#7c2d12" opacity="0.85"/>
    <text x="462" y="38" fill="#ffedd5" font-size="25">Capacity</text>
  </g>
</svg>
